<svg width="160" height="40" viewBox="0 0 160 40" fill="none" xmlns="http://www.w3.org/2000/svg">
  <g id="icon">
    <rect x="0" y="20" width="18" height="18" rx="4" fill="#3b82f6"/>
    <rect x="22" y="20" width="18" height="18" rx="4" fill="#3b82f6"/>
    <rect x="11" y="0" width="18" height="18" rx="4" fill="#eab308"/>
  </g>
  
  <g id="text">
    <path d="M68.5 38L62.8 23.4H62.6L56.9 38H52.4L60.5 18H65.1L73.1 38H68.5ZM60.3 32H65.3L62.8 25.5L60.3 32Z" fill="#1e293b"/>
    <path d="M91.4 35.8C90.3 36.6 89 37.2 87.5 37.6C86 38 84.4 38.2 82.6 38.2C79.9 38.2 77.6 37.6 75.8 36.3C74 35 72.6 33.3 71.7 31.1C70.8 28.9 70.3 26.4 70.3 23.6V22.4C70.3 19.6 70.8 17.1 71.7 14.9C72.7 12.7 74.1 11 75.9 9.70001C77.7 8.40001 80 7.70001 82.6 7.70001C85 7.70001 87.1 8.20001 88.8 9.10001C90.5 10 91.8 11.2 92.6 12.8L88.7 14.8C88.1 13.8 87.3 13 86.3 12.5C85.3 12 84.1 11.8 82.7 11.8C81.2 11.8 79.8 12.2 78.7 13C77.6 13.8 76.7 15 76 16.5C75.4 18 75.1 19.8 75.1 21.8V24.1C75.1 26.2 75.4 28 76 29.5C76.6 31 77.5 32.2 78.6 33C79.7 33.8 81.1 34.2 82.6 34.2C83.7 34.2 84.6 34 85.5 33.7C86.4 33.4 87.2 32.9 88 32.3V25.8H82.2V21.8H92.5V36.2L91.4 35.8Z" fill="#1e293b"/>
    <path d="M101.4 38V12.8L108.6 30.6H109L116.1 12.8V38H120.5V8H113.8L108.8 20.4L103.8 8H97.1001V38H101.4Z" fill="#1e293b"/>
  </g>
</svg>